<svg xmlns="http://www.w3.org/2000/svg" width="39.356" height="27.497" viewBox="0 0 39.356 27.497">
  <path id="binocular" d="M22.253,20.3a3.69,3.69,0,0,1-5.15,0A8.61,8.61,0,1,1,1.258,14.4l-.022,0A18.577,18.577,0,0,1,2.777,9.381c1.561-3.292,3.9-5.4,6.8-6.137C10.23,1.978,11.551.317,13.39.191c.075-.006.151-.008.226-.008,1.47,0,2.84.993,4.083,2.959,1.085.042,3.026.008,4.24-.023.6-1.06,1.968-3.014,4-3.115.055,0,.11,0,.165,0,1.553,0,3.01,1.1,4.333,3.276A12.234,12.234,0,0,1,34.107,5.82,10.343,10.343,0,0,1,37.382,13.4a8.61,8.61,0,1,1-15.129,6.9ZM24.6,18.888a6.149,6.149,0,1,0,6.15-6.15A6.156,6.156,0,0,0,24.6,18.888Zm-22.138,0a6.149,6.149,0,1,0,6.15-6.15A6.156,6.156,0,0,0,2.459,18.888Zm15.989-1.23a1.23,1.23,0,1,0,1.23-1.23A1.231,1.231,0,0,0,18.448,17.658Zm4.321-2.014a8.615,8.615,0,0,1,12.169-4.278A10.063,10.063,0,0,0,29.55,5.305l-.522-.049-.286-.5c-.935-1.643-1.872-2.54-2.642-2.54h-.045c-1.017.048-2.069,1.667-2.42,2.444l-.283.63-.691.023c-.451.014-4.439.137-5.735-.006l-.559-.063-.279-.486C15.212,3.232,14.334,2.4,13.606,2.4l-.064,0c-.89.061-1.819,1.361-2.166,2.222l-.227.562-.6.112C8.1,5.755,6.165,7.43,4.8,10.28c-.186.389-.349.774-.491,1.147a8.615,8.615,0,0,1,12.275,4.217,3.69,3.69,0,0,1,6.183,0Z" fill="#35353d"/>
</svg>
