<svg xmlns="http://www.w3.org/2000/svg" width="25.175" height="26.863" viewBox="0 0 25.175 26.863">
  <path id="call" d="M18.267,26.863c-.153,0-.306-.006-.471-.019a12.88,12.88,0,0,1-7.018-2.818A42.043,42.043,0,0,1,2.658,15.36,14.847,14.847,0,0,1,.018,7.872,7,7,0,0,1,.38,5.1,6.652,6.652,0,0,1,1.8,2.744L3.343,1.091a3.342,3.342,0,0,1,4.939,0l1.4,1.495a3.719,3.719,0,0,1,.757,1.209,3.96,3.96,0,0,1,0,2.852,3.719,3.719,0,0,1-.757,1.209l-.8.857a1.976,1.976,0,0,0-.514,1.162,2.015,2.015,0,0,0,.291,1.247,22.553,22.553,0,0,0,6.1,6.505,1.714,1.714,0,0,0,.992.318,1.679,1.679,0,0,0,.177-.009,1.754,1.754,0,0,0,1.089-.548l.8-.856a3.494,3.494,0,0,1,1.134-.808,3.289,3.289,0,0,1,2.672,0,3.494,3.494,0,0,1,1.134.808l1.4,1.493a3.744,3.744,0,0,1,.757,1.21,3.948,3.948,0,0,1,0,2.852,3.731,3.731,0,0,1-.757,1.209L22.6,24.944a6.068,6.068,0,0,1-1.987,1.419,5.752,5.752,0,0,1-2.345.5ZM5.128,1.962a1.766,1.766,0,0,0-.579.413L3,4.029a4.81,4.81,0,0,0-1.022,1.7,5.051,5.051,0,0,0-.261,2A12.967,12.967,0,0,0,4.02,14.27a40.3,40.3,0,0,0,7.779,8.3,11.246,11.246,0,0,0,6.125,2.462c.111.009.225.014.337.014a4.171,4.171,0,0,0,1.539-.294,4.385,4.385,0,0,0,1.6-1.09l1.549-1.653a2,2,0,0,0,0-2.7l-1.4-1.492a1.754,1.754,0,0,0-2.532,0l-.8.855a3.351,3.351,0,0,1-2.47,1.089,3.335,3.335,0,0,1-1.936-.623,24.3,24.3,0,0,1-6.569-7.01,3.945,3.945,0,0,1-.567-2.434,3.857,3.857,0,0,1,1-2.268l.8-.857a2,2,0,0,0,0-2.7l-1.4-1.495a1.763,1.763,0,0,0-.58-.414,1.672,1.672,0,0,0-.682-.145h0A1.675,1.675,0,0,0,5.128,1.962Z" transform="translate(0)" fill="#333"/>
</svg>
