<svg xmlns="http://www.w3.org/2000/svg" width="50.948" height="44.099" viewBox="0 0 50.948 44.099">
  <path id="cart_plus" d="M30.728,37.537a6.564,6.564,0,0,1,4.949-6.361H19.219a6.561,6.561,0,1,1-3.226,0H13.216l-.4-1.44L5.589,3.938H0V0H8.575l.4,1.439,7.224,25.8H39.28L46.6,9.93h4.345L41.889,31.176H38.9a6.562,6.562,0,1,1-8.175,6.361Zm3.281,0a3.281,3.281,0,1,0,3.28-3.28A3.284,3.284,0,0,0,34.009,37.537Zm-19.684,0a3.281,3.281,0,1,0,3.281-3.28A3.284,3.284,0,0,0,14.325,37.537Zm12.659-18.3v-6.76H20.19V8.919h6.794V2.125h3.547V8.919H37.29v3.563H30.531v6.76Z" fill="#35353d"/>
</svg>
