<svg xmlns="http://www.w3.org/2000/svg" width="52.544" height="44.098" viewBox="0 0 52.544 44.098">
  <path id="cart" d="M30.728,37.537a6.563,6.563,0,0,1,4.944-6.36H19.222a6.561,6.561,0,1,1-3.234,0H13.216l-.4-1.441L5.588,3.939H0V0H8.574l.4,1.439,7.224,25.8H39.281L46.6,9.932H15.8V5.994H52.544L41.889,31.177H38.906a6.561,6.561,0,1,1-8.178,6.36Zm3.281,0a3.28,3.28,0,1,0,3.279-3.281A3.284,3.284,0,0,0,34.01,37.537Zm-19.684,0a3.28,3.28,0,1,0,3.279-3.281A3.284,3.284,0,0,0,14.326,37.537Z" fill="#35353d"/>
</svg>
