<svg xmlns="http://www.w3.org/2000/svg" width="32.362" height="31.943" viewBox="0 0 32.362 31.943">
  <path id="free_shipping" d="M11.634,31.858a1,1,0,0,1-.6-.862l-.221-4.066a1.009,1.009,0,0,1-.223-.171l-5.1-5.207a1,1,0,0,1-.267-.509L.941,20.787a1,1,0,0,1-.633-1.72l5.207-4.994a1,1,0,0,1,.692-.278h4.262L20.084,1.532a1,1,0,0,1,.679-.376L31.253.007A1,1,0,0,1,32.36,1.073l-.715,9.863a1,1,0,0,1-.38.714L18.757,21.477V26.2a1,1,0,0,1-.362.77l-5.722,4.741a.99.99,0,0,1-1.039.147Zm1.292-2.953,3.831-3.174V23.174L15.287,24.2l-2.509,1.972ZM21.4,3.1,7.535,20.778l3.725,3.8,2.854-2L29.682,10.35l.6-8.224ZM3.344,18.927l2.778.165,2.666-3.3H6.609Zm-1.876,11.2a1,1,0,0,1-.2-1.1l2.539-5.8,1.832.8L4.1,27.526,7.732,26l.776,1.843-5.939,2.5a1,1,0,0,1-1.1-.22ZM20.542,9.2a2,2,0,1,1,2,2A2,2,0,0,1,20.542,9.2Z" transform="translate(0)" fill="#383838"/>
</svg>
