<svg xmlns="http://www.w3.org/2000/svg" width="42.324" height="44.69" viewBox="0 0 42.324 44.69">
  <g id="free_returns" transform="translate(0.001 32.972) rotate(-68)">
    <path id="Union_122" data-name="Union 122" d="M226.564-12725.647a16.274,16.274,0,0,1-1.959-2.436,1.415,1.415,0,0,1-.08-1.475,1.4,1.4,0,0,1,1.277-.746,1.4,1.4,0,0,1,1.187.644,13.677,13.677,0,0,0,1.6,2.038,12.78,12.78,0,0,0,13.4,3.146,12.78,12.78,0,0,0,8.484-10.834l-1.773,1.771a1.418,1.418,0,0,1-2.01,0,1.418,1.418,0,0,1,0-2.01l4.295-4.295a1.422,1.422,0,0,1,1-.416,1.406,1.406,0,0,1,1.011.438l4.25,4.424a1.419,1.419,0,0,1,.41,1.023,1.432,1.432,0,0,1-.442,1.009,1.431,1.431,0,0,1-2.013-.032l-1.882-1.956a15.634,15.634,0,0,1-10.257,13.465,15.6,15.6,0,0,1-5.329.938A15.634,15.634,0,0,1,226.564-12725.647Zm-3.3-6.9a1.418,1.418,0,0,1-.893-1.227,15.687,15.687,0,0,1,.054-6.07,1.421,1.421,0,0,1,1.389-1.111,1.294,1.294,0,0,1,.294.032,1.424,1.424,0,0,1,1.1,1.684,12.59,12.59,0,0,0-.272,2.637,12.753,12.753,0,0,0,.211,2.314,1.426,1.426,0,0,1-.394,1.462,1.417,1.417,0,0,1-.965.38A1.431,1.431,0,0,1,223.261-12732.547Zm2.6-10.539a1.42,1.42,0,0,1-1.239-.832,1.425,1.425,0,0,1,.192-1.482,15.523,15.523,0,0,1,4.343-4.263,1.406,1.406,0,0,1,.778-.233,1.428,1.428,0,0,1,1.367,1.015,1.424,1.424,0,0,1-.582,1.6v-.022a12.774,12.774,0,0,0-3.556,3.492,1.42,1.42,0,0,1-1.243.73Zm21.043-2.478h-.026a13.186,13.186,0,0,0-1.962-1.667,1.42,1.42,0,0,1-.563-1.594,1.425,1.425,0,0,1,1.363-1,1.435,1.435,0,0,1,.822.271,15.63,15.63,0,0,1,2.4,2.007,1.424,1.424,0,0,1-.022,2.01,1.419,1.419,0,0,1-1,.406A1.416,1.416,0,0,1,246.9-12745.563Zm-6.59-3.571v-.007a13.007,13.007,0,0,0-5-.032,1.421,1.421,0,0,1-1.546-1.136,1.422,1.422,0,0,1,.989-1.642,15.7,15.7,0,0,1,6.113.038,1.426,1.426,0,0,1,.992,1.646,1.427,1.427,0,0,1-1.4,1.141C240.414-12749.127,240.364-12749.13,240.313-12749.135Z" transform="translate(-222.098 12752.231)" fill="#35353d"/>
  </g>
</svg>
