<svg xmlns="http://www.w3.org/2000/svg" width="42.597" height="42.619" viewBox="0 0 42.597 42.619">
  <path id="Union_120" data-name="Union 120" d="M12.74,40.977A20.877,20.877,0,0,1,0,22.721H2.871A18.015,18.015,0,0,0,33.908,34.159l1.611-1.69h-6.95V29.606l9.591,0,.926,0a1.434,1.434,0,0,1,1.433,1.433V41.6H37.652V34.4l-1.721,1.792a20.882,20.882,0,0,1-6.736,4.7,20.911,20.911,0,0,1-16.456.089ZM41.749,20.72H38.88A18.017,18.017,0,0,0,7.841,9.282l-1.613,1.69h7.027v2.863H3.065l-.4,0A1.433,1.433,0,0,1,1.231,12.4V1.668H4.1l0,7.376L5.819,7.252a20.912,20.912,0,0,1,6.734-4.7,20.884,20.884,0,0,1,29.2,18.167h0Zm.846-1.8a21.822,21.822,0,0,0-4.01-10.085A21.678,21.678,0,0,1,42.6,18.916ZM23.679,0A21.629,21.629,0,0,1,33.764,4.01,21.826,21.826,0,0,0,23.679,0Z"/>
</svg>
