<svg xmlns="http://www.w3.org/2000/svg" width="29.999" height="30.003" viewBox="0 0 29.999 30.003">
  <path id="Union_121" data-name="Union 121" d="M286.006-12728.779a14.9,14.9,0,0,1-4.392-10.607,14.9,14.9,0,0,1,4.392-10.6,14.905,14.905,0,0,1,10.608-4.4,14.911,14.911,0,0,1,10.608,4.4,14.9,14.9,0,0,1,4.392,10.6,14.9,14.9,0,0,1-4.392,10.607,14.911,14.911,0,0,1-10.608,4.4A14.905,14.905,0,0,1,286.006-12728.779Zm10.608,2.395a13,13,0,0,0,2-.154v-5.1a8,8,0,0,1-2,.253,8,8,0,0,1-2-.253v5.1A13,13,0,0,0,296.614-12726.385Zm-4-.63v-5.372h.129a8.061,8.061,0,0,1-3.128-3.132v.133h-5.369A13.064,13.064,0,0,0,292.613-12727.015Zm8-5.372v5.372a13.064,13.064,0,0,0,8.368-8.371h-5.369v-.133a8.061,8.061,0,0,1-3.129,3.132Zm-10-7a6,6,0,0,0,6,6,6,6,0,0,0,6-6,6,6,0,0,0-6-6A6,6,0,0,0,290.616-12739.387Zm18.844,2a13.056,13.056,0,0,0,.154-2,13.062,13.062,0,0,0-.153-2h-5.1a7.99,7.99,0,0,1,.252,2,7.983,7.983,0,0,1-.253,2Zm-20.591,0a7.983,7.983,0,0,1-.253-2,7.99,7.99,0,0,1,.252-2h-5.1a13.062,13.062,0,0,0-.153,2,13.052,13.052,0,0,0,.154,2Zm14.746-5.868v-.13h5.369a13.062,13.062,0,0,0-8.369-8.371v5.372h-.128A8.053,8.053,0,0,1,303.615-12743.255Zm-14-.13v.13a8.053,8.053,0,0,1,3.127-3.129h-.128v-5.372a13.062,13.062,0,0,0-8.369,8.371Zm9-3.748v-5.1a13.12,13.12,0,0,0-2-.153,13.12,13.12,0,0,0-2,.153v5.1a8,8,0,0,1,2-.253A8,8,0,0,1,298.615-12747.133Z" transform="translate(-281.615 12754.387)"/>
</svg>
