<svg xmlns="http://www.w3.org/2000/svg" width="48.232" height="41.342" viewBox="0 0 48.232 41.342">
  <g id="wishlist" transform="translate(0 -36.545)">
    <path id="Path_55409" data-name="Path 55409" d="M44.814,39.883q-3.419-3.338-9.447-3.338a10.733,10.733,0,0,0-3.4.578,13.76,13.76,0,0,0-3.229,1.561q-1.494.982-2.571,1.844a24.872,24.872,0,0,0-2.045,1.83,24.905,24.905,0,0,0-2.046-1.83q-1.077-.861-2.571-1.844a13.779,13.779,0,0,0-3.23-1.561,10.736,10.736,0,0,0-3.4-.578q-6.029,0-9.447,3.338T0,49.141a11.791,11.791,0,0,0,.633,3.714,16.292,16.292,0,0,0,1.44,3.257A23.82,23.82,0,0,0,3.9,58.736Q4.926,60.014,5.4,60.5a8.916,8.916,0,0,0,.74.7L22.932,77.4a1.689,1.689,0,0,0,2.369,0l16.768-16.15q6.164-6.163,6.164-12.111Q48.232,43.219,44.814,39.883Zm-5.087,18.84L24.116,73.768,8.479,58.7q-5.033-5.032-5.033-9.555a11.735,11.735,0,0,1,.578-3.849A7.518,7.518,0,0,1,5.5,42.641a7.11,7.11,0,0,1,2.194-1.6,9.725,9.725,0,0,1,2.53-.834,15.416,15.416,0,0,1,2.638-.215,7.741,7.741,0,0,1,3.015.686A13.761,13.761,0,0,1,18.854,42.4q1.359,1.037,2.329,1.938A20.908,20.908,0,0,1,22.8,45.992a1.764,1.764,0,0,0,2.638,0,20.851,20.851,0,0,1,1.615-1.655q.969-.9,2.328-1.938a13.757,13.757,0,0,1,2.975-1.722,7.74,7.74,0,0,1,3.015-.686A15.419,15.419,0,0,1,38,40.205a9.714,9.714,0,0,1,2.53.834,7.11,7.11,0,0,1,2.193,1.6,7.518,7.518,0,0,1,1.481,2.651,11.745,11.745,0,0,1,.578,3.849Q44.787,53.663,39.727,58.723Z" transform="translate(0 0)" fill="#333"/>
  </g>
</svg>
